<svg xmlns="http://www.w3.org/2000/svg" viewBox="12302.06 2415.67 55.02 230.77" width="100%" height="100%" preserveAspectRatio="xMidYMid meet"><g id="Layer1000" > <path d=" M12304.06,2644.44 L12355.08,2644.44 L12355.08,2417.66 L12304.06,2417.66 L12304.06,2644.44 Z" style="stroke-width: 0.75; stroke-linecap: round; stroke-linejoin: round; fill-rule: evenodd; fill: #ffffff; "/> <path d=" M12304.06,2644.44 L12355.08,2644.44 L12355.08,2417.66 L12304.06,2417.66 L12304.06,2644.44 Z" style="stroke-width: 0.75; stroke: #000000; stroke-dasharray: none; stroke-linecap: round; stroke-linejoin: round; fill: none; "/> </g> <g id="Layer1001" > <path d=" M12330.99,2509.79 L12339.49,2509.79 L12339.49,2515.46 L12330.99,2515.46 L12330.99,2509.79 Z" style="stroke-width: 0.10; stroke-linecap: round; stroke-linejoin: round; fill-rule: evenodd; fill: #00b050; "/> <path d=" M12330.99,2509.79 L12339.49,2509.79 L12339.49,2515.46 L12330.99,2515.46 L12330.99,2509.79 Z" style="stroke-width: 0.10; stroke: #000000; stroke-dasharray: none; stroke-linecap: round; stroke-linejoin: round; fill: none; "/> </g> <text x="12343.60" y="2527.36" transform="rotate(-90.00, 12350.83, 2527.36)" > <tspan font-family="Arial" font-size="4.00" fill="#000000" fill-opacity="1.00" stroke-opacity="1.00" > 179614</tspan> </text> <path d=" M12337.59,2619.41 A11.33,11.33 135.00 0,1 12337.59,2635.45 A11.33,11.33 135.00 1,1 12337.59,2619.41 Z M12354.87,2594.83 L12304.27,2594.83 M12354.87,2576.69 L12304.27,2576.69 M12354.87,2537.00 L12304.27,2537.00 M12340.55,2527.76 L12340.55,2521.46 M12354.87,2467.27 L12304.27,2467.27 M12337.59,2426.65 A11.33,11.33 135.00 0,1 12337.59,2442.69 A11.33,11.33 135.00 1,1 12337.59,2426.65 Z" style="stroke-width: 0.50; stroke: #000000; stroke-dasharray: none; stroke-linecap: round; stroke-linejoin: round; fill: none; "/> <path d=" M12341.63,2522.21 L12340.55,2520.05 L12339.48,2522.21 L12341.63,2522.21 Z M12341.63,2526.91 L12340.55,2529.07 L12339.48,2526.91 L12341.63,2526.91 Z" style="fill-rule: evenodd; fill: #000000; "/> <path d=" M12344.11,2522.19 L12344.11,2520.07 M12345.18,2527.99 A1.06,1.06 180.00 0,1 12344.11,2529.05 A1.06,1.06 180.00 1,1 12345.18,2527.99 Z" style="stroke-width: 0.35; stroke: #000000; stroke-dasharray: none; stroke-linecap: square; stroke-linejoin: miter; fill: none; "/> <path d=" M12313.43,2512.63 L12313.43,2516.59 L12317.40,2516.59 L12317.40,2512.63 M12310.32,2512.63 L12310.32,2508.66 L12320.50,2508.66 L12320.50,2512.63 L12310.32,2512.63 Z M12347.36,2511.21 L12347.36,2509.34 A1.56,1.56 170.78 0,0 12347.36,2506.21 L12347.36,2504.97 L12348.92,2504.97 L12348.92,2502.63 L12347.36,2502.63 L12347.36,2500.60 L12346.11,2498.72 M12346.58,2498.10 L12348.14,2498.10 M12346.81,2496.70 L12347.91,2495.60 M12346.81,2495.60 L12347.91,2496.70 M12347.36,2494.20 L12347.36,2498.10" style="stroke-width: 0.25; stroke: #000000; stroke-dasharray: none; stroke-linecap: round; stroke-linejoin: round; fill: none; "/> <path d=" M12337.26,2481.44 L12337.26,2477.90 L12352.25,2477.90 L12352.25,2481.44 L12337.26,2481.44 Z M12337.26,2474.65 L12337.26,2475.48 C12337.26,2475.64 12337.13,2475.77 12336.97,2475.77 L12334.62,2475.77 L12334.62,2481.15 C12334.62,2481.31 12334.49,2481.44 12334.33,2481.44 L12333.14,2481.44 C12332.98,2481.44 12332.85,2481.31 12332.85,2481.15 L12332.85,2475.77 L12330.50,2475.77 C12330.34,2475.77 12330.21,2475.64 12330.21,2475.48 L12330.21,2474.65 C12330.21,2474.49 12330.34,2474.36 12330.50,2474.36 L12336.97,2474.36 C12337.13,2474.36 12337.26,2474.49 12337.26,2474.65 Z M12322.83,2474.36 L12323.54,2474.36 C12323.95,2474.36 12324.32,2474.55 12324.56,2474.85 L12327.82,2478.80 L12327.82,2474.65 C12327.82,2474.49 12327.95,2474.36 12328.11,2474.36 L12329.30,2474.36 C12329.46,2474.36 12329.59,2474.49 12329.59,2474.65 L12329.59,2481.15 C12329.59,2481.31 12329.46,2481.44 12329.30,2481.44 L12328.59,2481.44 C12328.18,2481.44 12327.81,2481.25 12327.56,2480.96 L12324.31,2477.00 L12324.31,2481.15 C12324.31,2481.31 12324.18,2481.44 12324.02,2481.44 L12322.83,2481.44 C12322.67,2481.44 12322.54,2481.31 12322.54,2481.15 L12322.54,2474.65 C12322.54,2474.49 12322.67,2474.36 12322.83,2474.36 Z M12312.21,2476.72 C12312.21,2476.88 12312.34,2477.01 12312.50,2477.01 L12313.69,2477.01 C12313.85,2477.01 12313.98,2476.88 12313.98,2476.72 L12313.98,2476.19 C12313.98,2475.18 12313.13,2474.36 12312.10,2474.36 L12308.78,2474.36 C12307.74,2474.36 12306.89,2475.18 12306.89,2476.19 L12306.89,2479.62 C12306.89,2480.62 12307.74,2481.44 12308.78,2481.44 L12312.10,2481.44 C12313.13,2481.44 12313.98,2480.62 12313.98,2479.62 L12313.98,2478.76 C12313.98,2478.60 12313.85,2478.47 12313.69,2478.47 L12312.50,2478.47 C12312.34,2478.47 12312.21,2478.60 12312.21,2478.76 L12312.21,2479.43 C12312.21,2479.76 12311.94,2480.03 12311.61,2480.03 L12309.26,2480.03 C12308.93,2480.03 12308.67,2479.76 12308.67,2479.43 L12308.67,2476.37 C12308.67,2476.04 12308.93,2475.77 12309.26,2475.77 L12311.61,2475.77 C12311.94,2475.77 12312.21,2476.04 12312.21,2476.37 L12312.21,2476.72 Z M12314.89,2474.36 L12316.08,2474.36 C12316.24,2474.36 12316.37,2474.49 12316.37,2474.65 L12316.37,2477.01 L12321.44,2477.01 C12321.56,2477.01 12321.65,2477.11 12321.65,2477.23 L12321.65,2481.15 C12321.65,2481.31 12321.52,2481.44 12321.36,2481.44 L12320.17,2481.44 C12320.01,2481.44 12319.88,2481.31 12319.88,2481.15 L12319.88,2478.43 L12316.37,2478.43 L12316.37,2481.15 C12316.37,2481.31 12316.24,2481.44 12316.08,2481.44 L12314.89,2481.44 C12314.73,2481.44 12314.60,2481.31 12314.60,2481.15 L12314.60,2474.65 C12314.60,2474.49 12314.73,2474.36 12314.89,2474.36 Z M12320.17,2474.36 L12321.36,2474.36 C12321.52,2474.36 12321.65,2474.49 12321.65,2474.65 L12321.65,2475.84 C12321.65,2476.00 12321.52,2476.13 12321.36,2476.13 L12320.17,2476.13 C12320.01,2476.13 12319.88,2476.00 12319.88,2475.84 L12319.88,2474.65 C12319.88,2474.49 12320.01,2474.36 12320.17,2474.36 Z" style="fill-rule: evenodd; fill: #0070c0; "/> <g id="Layer1002" > <path d=" M12336.59,2620.41 A9.92,9.92 135.00 0,1 12336.59,2634.44 A9.92,9.92 135.00 1,1 12336.59,2620.41 Z M12336.59,2427.66 A9.92,9.92 135.00 0,1 12336.59,2441.69 A9.92,9.92 135.00 1,1 12336.59,2427.66 Z" style="stroke-width: 0.25; stroke-linecap: round; stroke-linejoin: round; fill-rule: evenodd; fill: #d8d8d8; "/> <path d=" M12336.59,2620.41 A9.92,9.92 135.00 0,1 12336.59,2634.44 A9.92,9.92 135.00 1,1 12336.59,2620.41 Z M12336.59,2427.66 A9.92,9.92 135.00 0,1 12336.59,2441.69 A9.92,9.92 135.00 1,1 12336.59,2427.66 Z" style="stroke-width: 0.25; stroke: #000000; stroke-dasharray: none; stroke-linecap: round; stroke-linejoin: round; fill: none; "/> </g> <g id="Layer1003" > <path d=" M12329.77,2436.87 L12329.57,2441.76 L12329.37,2436.87 L12326.06,2440.18 L12324.06,2438.18 L12327.37,2434.87 L12322.48,2434.67 L12327.37,2434.48 L12321.55,2428.66 L12323.56,2426.65 L12329.37,2432.47 L12329.57,2427.59 L12329.77,2432.47 L12333.08,2429.16 L12335.08,2431.16 L12331.77,2434.48 L12336.66,2434.67 L12331.77,2434.87 L12337.59,2440.69 L12335.58,2442.69 L12329.77,2436.87 Z M12329.77,2629.63 L12329.57,2634.51 L12329.37,2629.63 L12326.06,2632.94 L12324.06,2630.94 L12327.37,2627.62 L12322.48,2627.43 L12327.37,2627.23 L12321.55,2621.41 L12323.56,2619.41 L12329.37,2625.23 L12329.57,2620.34 L12329.77,2625.23 L12333.08,2621.92 L12335.08,2623.92 L12331.77,2627.23 L12336.66,2627.43 L12331.77,2627.62 L12337.59,2633.44 L12335.58,2635.45 L12329.77,2629.63 Z" style="stroke-width: 0.10; stroke-linecap: round; stroke-linejoin: round; fill-rule: evenodd; fill: #a5a5a5; "/> <path d=" M12329.77,2436.87 L12329.57,2441.76 L12329.37,2436.87 L12326.06,2440.18 L12324.06,2438.18 L12327.37,2434.87 L12322.48,2434.67 L12327.37,2434.48 L12321.55,2428.66 L12323.56,2426.65 L12329.37,2432.47 L12329.57,2427.59 L12329.77,2432.47 L12333.08,2429.16 L12335.08,2431.16 L12331.77,2434.48 L12336.66,2434.67 L12331.77,2434.87 L12337.59,2440.69 L12335.58,2442.69 L12329.77,2436.87 Z M12329.77,2629.63 L12329.57,2634.51 L12329.37,2629.63 L12326.06,2632.94 L12324.06,2630.94 L12327.37,2627.62 L12322.48,2627.43 L12327.37,2627.23 L12321.55,2621.41 L12323.56,2619.41 L12329.37,2625.23 L12329.57,2620.34 L12329.77,2625.23 L12333.08,2621.92 L12335.08,2623.92 L12331.77,2627.23 L12336.66,2627.43 L12331.77,2627.62 L12337.59,2633.44 L12335.58,2635.45 L12329.77,2629.63 Z" style="stroke-width: 0.10; stroke: #000000; stroke-dasharray: none; stroke-linecap: round; stroke-linejoin: round; fill: none; "/> </g>   <g id="Layer1004" > <path d=" M12313.98,2576.69 L12345.16,2576.69 L12345.16,2537.00 L12313.98,2537.00 L12313.98,2576.69 Z" style="stroke-width: 0.50; stroke-linecap: round; stroke-linejoin: round; fill-rule: evenodd; fill: #0070c0; "/> <path d=" M12313.98,2576.69 L12345.16,2576.69 L12345.16,2537.00 L12313.98,2537.00 L12313.98,2576.69 Z" style="stroke-width: 0.50; stroke: #000000; stroke-dasharray: none; stroke-linecap: round; stroke-linejoin: round; fill: none; "/> </g> <g id="Layer1005" > <path d=" M12313.98,2560.11 L12345.16,2560.11 L12345.16,2554.44 L12313.98,2554.44 L12313.98,2560.11 Z" style="stroke-width: 0.10; stroke-linecap: round; stroke-linejoin: round; fill-rule: evenodd; fill: #000000; fill-opacity: 0.49; "/> <path d=" M12313.98,2560.11 L12345.16,2560.11 L12345.16,2554.44 L12313.98,2554.44 L12313.98,2560.11 Z" style="stroke-width: 0.10; stroke: #000000; stroke-dasharray: none; stroke-linecap: round; stroke-linejoin: round; fill: none; fill-opacity: 0.49; "/> </g> <g id="Layer1006" > <path d=" M12315.40,2571.59 L12315.40,2563.08 L12343.74,2563.08 L12343.74,2571.59 L12348.70,2571.59 A1.41,1.41 0.00 0,1 12350.12,2573.00 L12350.12,2590.58 A1.41,1.41 0.00 0,1 12348.70,2592.00 L12343.74,2592.00 L12337.86,2593.70 L12321.28,2593.70 L12315.40,2592.00 L12310.44,2592.00 A1.41,1.41 0.00 0,1 12309.02,2590.58 L12309.02,2573.00 A1.41,1.41 0.00 0,1 12310.44,2571.59 L12315.40,2571.59 Z" style="stroke-width: 0.50; stroke-linecap: round; stroke-linejoin: round; fill-rule: evenodd; fill: #0070c0; "/> <path d=" M12337.86,2591.00 L12337.86,2593.55 M12321.28,2591.00 L12321.28,2593.55 M12315.40,2587.74 L12321.28,2590.86 L12337.86,2590.86 L12343.74,2587.74 M12315.40,2584.62 L12315.40,2576.40 L12343.74,2576.40 L12343.74,2584.62 M12309.16,2583.49 A1.40,1.41 0.00 0,0 12310.57,2584.91 L12348.57,2584.91 A1.40,1.41 0.00 0,0 12349.98,2583.49 M12315.40,2571.59 L12315.40,2563.08 L12343.74,2563.08 L12343.74,2571.59 L12348.70,2571.59 A1.41,1.41 0.00 0,1 12350.12,2573.00 L12350.12,2590.58 A1.41,1.41 0.00 0,1 12348.70,2592.00 L12343.74,2592.00 L12337.86,2593.70 L12321.28,2593.70 L12315.40,2592.00 L12310.44,2592.00 A1.41,1.41 0.00 0,1 12309.02,2590.58 L12309.02,2573.00 A1.41,1.41 0.00 0,1 12310.44,2571.59 L12315.40,2571.59 Z" style="stroke-width: 0.50; stroke: #000000; stroke-dasharray: none; stroke-linecap: round; stroke-linejoin: round; fill: none; "/> </g> <text x="12306.33" y="2496.39"> <tspan font-family="Arial" font-size="8.00" fill="#000000" fill-opacity="1.00" stroke-opacity="1.00" > NB1-63</tspan> <tspan font-family="Arial" font-size="8.00" fill="#000000" fill-opacity="1.00" stroke-opacity="1.00" > C10</tspan> </text></svg>