<svg xmlns="http://www.w3.org/2000/svg" viewBox="3353.65 -3225.56 826.05 967.78" width="100%" height="100%" preserveAspectRatio="xMidYMid meet"><g id="Layer1000" > <path d=" M3364.15,-2259.77 L4169.19,-2259.77 Q4177.70,-2259.77 4177.70,-2268.28 L4177.70,-3215.05 Q4177.70,-3223.55 4169.19,-3223.55 L3364.15,-3223.55 Q3355.65,-3223.55 3355.65,-3215.05 L3355.65,-2268.28 Q3355.65,-2259.77 3364.15,-2259.77 Z" style="stroke-width: 0.75; stroke-linecap: round; stroke-linejoin: round; fill-rule: evenodd; fill: #ffffff; "/> <path d=" M3364.15,-2259.77 L4169.19,-2259.77 Q4177.70,-2259.77 4177.70,-2268.28 L4177.70,-3215.05 Q4177.70,-3223.55 4169.19,-3223.55 L3364.15,-3223.55 Q3355.65,-3223.55 3355.65,-3215.05 L3355.65,-2268.28 Q3355.65,-2259.77 3364.15,-2259.77 Z" style="stroke-width: 0.75; stroke: #000000; stroke-dasharray: none; stroke-linecap: round; stroke-linejoin: round; fill: none; "/> </g> <g id="Layer1001" > <path d=" M3712.81,-2774.69 L3820.53,-2774.69 Q3829.03,-2774.69 3829.03,-2783.19 L3829.03,-2805.87 Q3829.03,-2814.37 3820.53,-2814.37 L3712.81,-2814.37 Q3704.31,-2814.37 3704.31,-2805.87 L3704.31,-2783.19 Q3704.31,-2774.69 3712.81,-2774.69 Z" style="stroke-width: 0.75; stroke-linecap: round; stroke-linejoin: round; fill-rule: evenodd; fill: #ccff66; "/> <path d=" M3712.81,-2774.69 L3820.53,-2774.69 Q3829.03,-2774.69 3829.03,-2783.19 L3829.03,-2805.87 Q3829.03,-2814.37 3820.53,-2814.37 L3712.81,-2814.37 Q3704.31,-2814.37 3704.31,-2805.87 L3704.31,-2783.19 Q3704.31,-2774.69 3712.81,-2774.69 Z" style="stroke-width: 0.75; stroke: #000000; stroke-dasharray: none; stroke-linecap: round; stroke-linejoin: round; fill: none; "/> </g> <g id="Layer1002" > <path d=" M3729.61,-2774.69 L3738.11,-2774.69 L3738.11,-2814.37 L3729.61,-2814.37 L3729.61,-2774.69 Z" style="stroke-width: 0.75; stroke-linecap: round; stroke-linejoin: round; fill-rule: evenodd; fill: #ccff66; "/> <path d=" M3729.61,-2774.69 L3738.11,-2774.69 L3738.11,-2814.37 L3729.61,-2814.37 L3729.61,-2774.69 Z" style="stroke-width: 0.75; stroke: #000000; stroke-dasharray: none; stroke-linecap: round; stroke-linejoin: round; fill: none; "/> </g> <g id="Layer1003" > <path d=" M3794.81,-2774.69 L3803.31,-2774.69 L3803.31,-2814.37 L3794.81,-2814.37 L3794.81,-2774.69 Z" style="stroke-width: 0.75; stroke-linecap: round; stroke-linejoin: round; fill-rule: evenodd; fill: #ccff66; "/> <path d=" M3794.81,-2774.69 L3803.31,-2774.69 L3803.31,-2814.37 L3794.81,-2814.37 L3794.81,-2774.69 Z" style="stroke-width: 0.75; stroke: #000000; stroke-dasharray: none; stroke-linecap: round; stroke-linejoin: round; fill: none; "/> </g> <defs> <radialGradient id="grad1" cx="50.00%" cy="50.00%" r="100.00%" > <stop offset="0%" stop-color="#ccff66" stop-opacity="0.36" /> <stop offset="100%" stop-color="#00b050" stop-opacity="0.36" /> </radialGradient> </defs> <path d=" M3759.59,-2783.19 L3773.76,-2783.19 Q3785.10,-2783.19 3785.10,-2794.53 Q3785.10,-2805.87 3773.76,-2805.87 L3759.59,-2805.87 Q3748.25,-2805.87 3748.25,-2794.53 Q3748.25,-2783.19 3759.59,-2783.19 Z" style="fill-rule: evenodd; fill: url(#grad1); "/> <path d=" M4143.59,-2398.25 A7.55,7.55 180.00 0,1 4136.03,-2390.69 A7.55,7.55 180.00 1,1 4143.59,-2398.25 Z M4151.14,-2398.25 A15.11,15.11 180.00 0,1 4136.03,-2383.13 A15.11,15.11 180.00 1,1 4151.14,-2398.25 Z M4153.03,-2398.25 A17.00,17.00 180.00 0,1 4136.03,-2381.24 A17.00,17.00 180.00 1,1 4153.03,-2398.25 Z M4129.61,-2748.94 A5.56,5.56 0.00 0,1 4135.18,-2754.51 A5.56,5.56 0.00 0,1 4140.74,-2748.94 L4140.74,-2734.39 A5.56,5.56 0.00 0,1 4135.18,-2728.82 A5.56,5.56 0.00 0,1 4129.61,-2734.39 L4129.61,-2748.94 Z M4154.01,-2741.66 A18.83,18.83 180.00 0,1 4135.18,-2722.83 A18.83,18.83 180.00 1,1 4154.01,-2741.66 Z M4155.73,-2741.66 A20.55,20.55 180.00 0,1 4135.18,-2721.11 A20.55,20.55 180.00 1,1 4155.73,-2741.66 Z M4127.65,-2303.62 A5.75,5.75 0.00 0,1 4121.89,-2309.38 A5.75,5.75 0.00 0,1 4127.65,-2315.14 L4142.71,-2315.14 A5.75,5.75 0.00 0,1 4148.46,-2309.38 A5.75,5.75 0.00 0,1 4142.71,-2303.62 L4127.65,-2303.62 Z M4135.18,-2328.87 A19.48,19.48 90.00 0,1 4154.66,-2309.38 A19.48,19.48 90.00 1,1 4135.18,-2328.87 Z M4135.18,-2330.64 A21.25,21.25 90.00 0,1 4156.44,-2309.38 A21.25,21.25 90.00 1,1 4135.18,-2330.64 Z M4150.68,-2530.39 L4150.68,-2533.50 L4148.02,-2533.50 L4148.02,-2530.39 L4144.92,-2530.39 L4144.92,-2527.74 L4148.02,-2527.74 L4148.02,-2524.64 L4150.68,-2524.64 L4150.68,-2527.74 L4153.78,-2527.74 L4153.78,-2530.39 L4150.68,-2530.39 Z M4142.26,-2529.07 A7.08,7.08 0.00 1,1 4149.35,-2521.98 A7.08,7.08 0.00 0,1 4142.26,-2529.07 Z M4135.18,-2490.80 L4135.18,-2567.33 L4106.83,-2567.33 L4106.83,-2490.80 L4135.18,-2490.80 Z M4163.52,-2479.46 L4163.52,-2578.67 L4135.18,-2578.67 L4135.18,-2479.46 L4163.52,-2479.46 Z M4096.88,-2273.95 L4096.91,-2273.95 L4096.91,-2283.87 L4079.90,-2283.87 L4079.90,-2346.23 L4096.91,-2346.23 L4096.91,-2312.22 L4079.90,-2312.22 M4096.91,-2346.23 L4096.91,-2439.77 L4112.05,-2473.79 L4163.52,-2473.79 M3404.88,-3085.08 A7.55,7.55 180.00 0,1 3397.32,-3077.52 A7.55,7.55 180.00 1,1 3404.88,-3085.08 Z M3412.44,-3085.08 A15.11,15.11 180.00 0,1 3397.32,-3069.96 A15.11,15.11 180.00 1,1 3412.44,-3085.08 Z M3414.33,-3085.08 A17.00,17.00 180.00 0,1 3397.32,-3068.07 A17.00,17.00 180.00 1,1 3414.33,-3085.08 Z M3390.64,-3168.19 A5.75,5.75 0.00 0,1 3384.88,-3173.95 A5.75,5.75 0.00 0,1 3390.64,-3179.71 L3405.70,-3179.71 A5.75,5.75 0.00 0,1 3411.46,-3173.95 A5.75,5.75 0.00 0,1 3405.70,-3168.19 L3390.64,-3168.19 Z M3398.17,-3193.44 A19.48,19.48 90.00 0,1 3417.66,-3173.95 A19.48,19.48 90.00 1,1 3398.17,-3193.44 Z M3398.17,-3195.21 A21.25,21.25 90.00 0,1 3419.43,-3173.95 A21.25,21.25 90.00 1,1 3398.17,-3195.21 Z M3436.47,-3209.38 L3436.44,-3209.38 L3436.44,-3199.46 L3453.44,-3199.46 L3453.44,-3137.10 L3436.44,-3137.10 L3436.44,-3171.11 L3453.44,-3171.11 M3436.44,-3137.10 L3436.44,-3043.55 L3421.30,-3009.54 L3369.82,-3009.54 M3382.67,-2955.59 L3382.67,-2958.69 L3385.32,-2958.69 L3385.32,-2955.59 L3388.42,-2955.59 L3388.42,-2952.93 L3385.32,-2952.93 L3385.32,-2949.83 L3382.67,-2949.83 L3382.67,-2952.93 L3379.57,-2952.93 L3379.57,-2955.59 L3382.67,-2955.59 Z M3391.08,-2954.26 A7.08,7.08 180.00 0,1 3384.00,-2947.18 A7.08,7.08 180.00 1,1 3391.08,-2954.26 Z M3398.17,-2916.00 L3398.17,-2992.53 L3426.51,-2992.53 L3426.51,-2916.00 L3398.17,-2916.00 Z M3369.82,-2904.66 L3369.82,-3003.87 L3398.17,-3003.87 L3398.17,-2904.66 L3369.82,-2904.66 Z M4039.37,-2391.59 A22.67,22.67 180.00 0,1 4016.69,-2368.91 A22.67,22.67 180.00 1,1 4039.37,-2391.59 Z M4052.12,-2391.59 A35.43,35.43 180.00 0,1 4016.69,-2356.15 A35.43,35.43 180.00 1,1 4052.12,-2391.59 Z M3835.38,-2391.59 A22.67,22.67 180.00 0,1 3812.71,-2368.91 A22.67,22.67 180.00 1,1 3835.38,-2391.59 Z M3848.14,-2391.59 A35.43,35.43 180.00 0,1 3812.71,-2356.15 A35.43,35.43 180.00 1,1 3848.14,-2391.59 Z M3743.31,-2391.59 A22.67,22.67 180.00 0,1 3720.64,-2368.91 A22.67,22.67 180.00 1,1 3743.31,-2391.59 Z M3756.07,-2391.59 A35.43,35.43 180.00 0,1 3720.64,-2356.15 A35.43,35.43 180.00 1,1 3756.07,-2391.59 Z M3539.33,-2391.59 A22.67,22.67 180.00 0,1 3516.66,-2368.91 A22.67,22.67 180.00 1,1 3539.33,-2391.59 Z M3552.09,-2391.59 A35.43,35.43 180.00 0,1 3516.66,-2356.15 A35.43,35.43 180.00 1,1 3552.09,-2391.59 Z M3943.04,-2391.59 A28.34,28.34 180.00 0,1 3914.70,-2363.24 A28.34,28.34 180.00 1,1 3943.04,-2391.59 Z M3960.05,-2391.59 A45.35,45.35 180.00 0,1 3914.70,-2346.23 A45.35,45.35 180.00 1,1 3960.05,-2391.59 Z M3646.99,-2391.59 A28.34,28.34 180.00 0,1 3618.65,-2363.24 A28.34,28.34 180.00 1,1 3646.99,-2391.59 Z M3664.00,-2391.59 A45.35,45.35 180.00 0,1 3618.65,-2346.23 A45.35,45.35 180.00 1,1 3664.00,-2391.59 Z M3404.88,-2398.25 A7.55,7.55 180.00 0,1 3397.32,-2390.69 A7.55,7.55 180.00 1,1 3404.88,-2398.25 Z M3412.44,-2398.25 A15.11,15.11 180.00 0,1 3397.32,-2383.13 A15.11,15.11 180.00 1,1 3412.44,-2398.25 Z M3414.33,-2398.25 A17.00,17.00 180.00 0,1 3397.32,-2381.24 A17.00,17.00 180.00 1,1 3414.33,-2398.25 Z M3392.60,-2748.94 A5.56,5.56 0.00 0,1 3398.17,-2754.51 A5.56,5.56 0.00 0,1 3403.73,-2748.94 L3403.73,-2734.39 A5.56,5.56 0.00 0,1 3398.17,-2728.82 A5.56,5.56 0.00 0,1 3392.60,-2734.39 L3392.60,-2748.94 Z M3417.01,-2741.66 A18.83,18.83 180.00 0,1 3398.17,-2722.83 A18.83,18.83 180.00 1,1 3417.01,-2741.66 Z M3418.72,-2741.66 A20.55,20.55 180.00 0,1 3398.17,-2721.11 A20.55,20.55 180.00 1,1 3418.72,-2741.66 Z M3392.41,-2316.91 A5.75,5.75 0.00 0,1 3398.17,-2322.67 A5.75,5.75 0.00 0,1 3403.93,-2316.91 L3403.93,-2301.85 A5.75,5.75 0.00 0,1 3398.17,-2296.09 A5.75,5.75 0.00 0,1 3392.41,-2301.85 L3392.41,-2316.91 Z M3417.66,-2309.38 A19.48,19.48 180.00 0,1 3398.17,-2289.89 A19.48,19.48 180.00 1,1 3417.66,-2309.38 Z M3419.43,-2309.38 A21.25,21.25 180.00 0,1 3398.17,-2288.12 A21.25,21.25 180.00 1,1 3419.43,-2309.38 Z M3436.47,-2273.95 L3436.44,-2273.95 L3436.44,-2283.87 L3453.44,-2283.87 L3453.44,-2346.23 L3436.44,-2346.23 L3436.44,-2312.22 L3453.44,-2312.22 M3436.44,-2346.23 L3436.44,-2439.77 L3421.30,-2473.79 L3369.82,-2473.79 M3382.67,-2530.39 L3382.67,-2533.50 L3385.32,-2533.50 L3385.32,-2530.39 L3388.42,-2530.39 L3388.42,-2527.74 L3385.32,-2527.74 L3385.32,-2524.64 L3382.67,-2524.64 L3382.67,-2527.74 L3379.57,-2527.74 L3379.57,-2530.39 L3382.67,-2530.39 Z M3391.08,-2529.07 A7.08,7.08 180.00 0,1 3384.00,-2521.98 A7.08,7.08 180.00 1,1 3391.08,-2529.07 Z M3398.17,-2490.80 L3398.17,-2567.33 L3426.51,-2567.33 L3426.51,-2490.80 L3398.17,-2490.80 Z M3369.82,-2479.46 L3369.82,-2578.67 L3398.17,-2578.67 L3398.17,-2479.46 L3369.82,-2479.46 Z M3378.33,-2273.95 A8.50,8.50 0.00 0,1 3369.82,-2282.45 L3369.82,-3200.88 A8.50,8.50 0.00 0,1 3378.33,-3209.38 L4155.02,-3209.38 A8.50,8.50 0.00 0,1 4163.52,-3200.88 L4163.52,-2282.45 A8.50,8.50 0.00 0,1 4155.02,-2273.95 L3378.33,-2273.95 Z M4143.59,-3085.08 A7.55,7.55 180.00 0,1 4136.03,-3077.52 A7.55,7.55 180.00 1,1 4143.59,-3085.08 Z M4151.14,-3085.08 A15.11,15.11 180.00 0,1 4136.03,-3069.96 A15.11,15.11 180.00 1,1 4151.14,-3085.08 Z M4153.03,-3085.08 A17.00,17.00 180.00 0,1 4136.03,-3068.07 A17.00,17.00 180.00 1,1 4153.03,-3085.08 Z M4129.42,-3181.48 A5.75,5.75 0.00 0,1 4135.18,-3187.24 A5.75,5.75 0.00 0,1 4140.93,-3181.48 L4140.93,-3166.42 A5.75,5.75 0.00 0,1 4135.18,-3160.66 A5.75,5.75 0.00 0,1 4129.42,-3166.42 L4129.42,-3181.48 Z M4154.66,-3173.95 A19.48,19.48 180.00 0,1 4135.18,-3154.46 A19.48,19.48 180.00 1,1 4154.66,-3173.95 Z M4156.44,-3173.95 A21.25,21.25 180.00 0,1 4135.18,-3152.69 A21.25,21.25 180.00 1,1 4156.44,-3173.95 Z M4150.68,-2955.59 L4150.68,-2958.69 L4148.02,-2958.69 L4148.02,-2955.59 L4144.92,-2955.59 L4144.92,-2952.93 L4148.02,-2952.93 L4148.02,-2949.83 L4150.68,-2949.83 L4150.68,-2952.93 L4153.78,-2952.93 L4153.78,-2955.59 L4150.68,-2955.59 Z M4142.26,-2954.26 A7.08,7.08 0.00 1,1 4149.35,-2947.18 A7.08,7.08 0.00 0,1 4142.26,-2954.26 Z M4135.18,-2916.00 L4135.18,-2992.53 L4106.83,-2992.53 L4106.83,-2916.00 L4135.18,-2916.00 Z M4163.52,-2904.66 L4163.52,-3003.87 L4135.18,-3003.87 L4135.18,-2904.66 L4163.52,-2904.66 Z M4096.88,-3209.38 L4096.91,-3209.38 L4096.91,-3199.46 L4079.90,-3199.46 L4079.90,-3137.10 L4096.91,-3137.10 L4096.91,-3171.11 L4079.90,-3171.11 M4096.91,-3137.10 L4096.91,-3043.55 L4112.05,-3009.54 L4163.52,-3009.54 M4039.37,-3091.74 A22.67,22.67 180.00 0,1 4016.69,-3069.07 A22.67,22.67 180.00 1,1 4039.37,-3091.74 Z M4052.12,-3091.74 A35.43,35.43 180.00 0,1 4016.69,-3056.31 A35.43,35.43 180.00 1,1 4052.12,-3091.74 Z M3835.38,-3091.74 A22.67,22.67 180.00 0,1 3812.71,-3069.07 A22.67,22.67 180.00 1,1 3835.38,-3091.74 Z M3848.14,-3091.74 A35.43,35.43 180.00 0,1 3812.71,-3056.31 A35.43,35.43 180.00 1,1 3848.14,-3091.74 Z M3743.31,-3091.74 A22.67,22.67 180.00 0,1 3720.64,-3069.07 A22.67,22.67 180.00 1,1 3743.31,-3091.74 Z M3756.07,-3091.74 A35.43,35.43 180.00 0,1 3720.64,-3056.31 A35.43,35.43 180.00 1,1 3756.07,-3091.74 Z M3539.33,-3091.74 A22.67,22.67 180.00 0,1 3516.66,-3069.07 A22.67,22.67 180.00 1,1 3539.33,-3091.74 Z M3552.09,-3091.74 A35.43,35.43 180.00 0,1 3516.66,-3056.31 A35.43,35.43 180.00 1,1 3552.09,-3091.74 Z M3943.04,-3091.74 A28.34,28.34 180.00 0,1 3914.70,-3063.40 A28.34,28.34 180.00 1,1 3943.04,-3091.74 Z M3960.05,-3091.74 A45.35,45.35 180.00 0,1 3914.70,-3046.39 A45.35,45.35 180.00 1,1 3960.05,-3091.74 Z M3646.99,-3091.74 A28.34,28.34 180.00 0,1 3618.65,-3063.40 A28.34,28.34 180.00 1,1 3646.99,-3091.74 Z M3664.00,-3091.74 A45.35,45.35 180.00 0,1 3618.65,-3046.39 A45.35,45.35 180.00 1,1 3664.00,-3091.74 Z" style="stroke-width: 0.75; stroke: #000000; stroke-dasharray: none; stroke-linecap: round; stroke-linejoin: round; fill: none; "/></svg>