<svg xmlns="http://www.w3.org/2000/svg" viewBox="1241.28 265.31 71.17 46.52" width="100%" height="100%" preserveAspectRatio="xMidYMid meet"><g id="Layer1000" > <g id="Layer1001" > <path d=" M1282.11,295.65 L1282.11,281.48 L1310.45,281.48 L1310.45,295.65 L1282.11,295.65 Z" style="stroke-width: 0.00; stroke-linecap: round; stroke-linejoin: round; fill-rule: evenodd; fill: #f2f2f2; "/> <path d=" M1310.45,295.65 L1282.11,295.65 M1310.45,295.65 L1282.11,295.65 M1310.45,295.65 L1282.11,295.65 M1310.45,295.65 L1282.11,295.65 M1310.45,295.65 L1282.11,295.65 M1310.45,295.65 L1282.11,295.65 L1282.11,281.48 L1310.45,281.48 L1310.45,295.65 L1282.11,295.65 Z M1296.28,281.48 L1296.28,289.98 M1296.28,295.65 L1296.28,287.14" style="stroke-width: 0.00; stroke: #000000; stroke-dasharray: none; stroke-linecap: round; stroke-linejoin: round; fill: none; "/> </g> <text x="1282.41" y="309.82"> <tspan font-family="Calibri" font-size="12.00" fill="#000000" fill-opacity="1.00" stroke-opacity="1.00" > 0 mm</tspan> </text> </g> <text x="1243.28" y="295.65"> <tspan font-family="Calibri" font-size="12.00" fill="#000000" fill-opacity="1.00" stroke-opacity="1.00" > 0 mm</tspan> </text> <text x="1243.28" y="281.48"> <tspan font-family="Calibri" font-size="12.00" fill="#000000" fill-opacity="1.00" stroke-opacity="1.00" > 5 mm</tspan> </text> <text x="1279.37" y="267.30"> <tspan font-family="Calibri" font-size="12.00" fill="#000000" fill-opacity="1.00" stroke-opacity="1.00" > 10 mm</tspan> </text></svg>