<svg xmlns="http://www.w3.org/2000/svg" viewBox="-2.00 -2.00 17.53 17.53" width="100%" height="100%" preserveAspectRatio="xMidYMid meet"><g id="Layer1001" > <path d=" M6.63,5.13 L1.50,0.00 L0.00,1.50 L5.13,6.63 L1.99,6.76 L5.13,6.89 L2.25,9.77 L3.75,11.27 L6.63,8.39 L6.76,11.53 L6.89,8.39 L12.02,13.52 L13.52,12.02 L8.39,6.89 L11.53,6.76 L8.39,6.63 L11.27,3.75 L9.77,2.25 L6.89,5.13 L6.76,1.99 L6.63,5.13 Z" style="stroke-width: 0.10; stroke-linecap: round; stroke-linejoin: round; fill-rule: evenodd; fill: #a5a5a5; "/> <path d=" M6.63,5.13 L1.50,0.00 L0.00,1.50 L5.13,6.63 L1.99,6.76 L5.13,6.89 L2.25,9.77 L3.75,11.27 L6.63,8.39 L6.76,11.53 L6.89,8.39 L12.02,13.52 L13.52,12.02 L8.39,6.89 L11.53,6.76 L8.39,6.63 L11.27,3.75 L9.77,2.25 L6.89,5.13 L6.76,1.99 L6.63,5.13 Z" style="stroke-width: 0.10; stroke: #000000; stroke-dasharray: none; stroke-linecap: round; stroke-linejoin: round; fill: none; "/> </g></svg>